# xmcd
#
# Track frame offsets:
#	150
#	14722
#	27750
#	43055
#	59250
#	84400
#	98422
#	120075
#	137175
#	152550
#	164975
#	183600
# Disc length: 2821 seconds
# Revision: 1
# Processed by: cddbd v1.5.2PL0 Copyright (c) Steve Scherf et al.
#
# Submitted via: libkcddb 0.20
#
DISCID=980b030c
DTITLE=Buddy Dee and The Ghostriders - Roll The Dice
DYEAR=1900
DGENRE=Country
TTITLE0=That Girl Likes To Dance
TTITLE1=Nothin' Looks Good
TTITLE2=Something Amazing
TTITLE3=Worl Of Hurtin'
TTITLE4=A Blank In Her Mind
TTITLE5=She Is My Point Of No Return
TTITLE6=Western Moon
TTITLE7=Wild And Crazy
TTITLE8=Don't Tell Me You're Taken
TTITLE9=Baby's Got A Gun
TTITLE10=It Means The World To Me
TTITLE11=Halfway Through
EXTD=
EXTT0=
EXTT1=
EXTT2=
EXTT3=
EXTT4=
EXTT5=
EXTT6=
EXTT7=
EXTT8=
EXTT9=
EXTT10=
EXTT11=
PLAYORDER=
